<svg width="500" height="500" viewBox="0 0 500 500" fill="none" xmlns="http://www.w3.org/2000/svg">
<g clip-path="url(#clip0_769_180)">
<path d="M550 -50H-50V550H550V-50Z" fill="white"/>
<path d="M550 -50H-50V550H550V-50Z" fill="white"/>
<path d="M93.1137 274.113C93.1137 274.113 223.108 265.217 224 405C84.209 404.117 93.1137 274.113 93.1137 274.113Z" fill="#2E493F"/>
<path d="M232 412L224.363 411.943C179.323 411.659 144.294 398.376 120.239 372.46C82.5826 331.88 85.9842 275.519 86.1457 273.144L86.5955 266.594L93.1583 266.131C93.1583 266.131 95.0053 266 98.2715 266C120.449 266 231.118 272.672 231.956 404.35L232 412ZM101.166 281.122C101.586 296.532 105.415 334.36 131.396 362.294C151.128 383.494 179.79 395.035 216.669 396.66C212.137 293.152 130.95 281.764 101.166 281.122Z" fill="#2E493F"/>
<path d="M248.499 137C248.499 137 346.376 222.577 248.499 322C150.626 222.577 248.499 137 248.499 137Z" fill="#2E493F"/>
<path d="M248 332L242.649 326.581C211.093 294.63 195.759 260.567 197.078 225.347C199.142 170.199 241.261 132.872 243.054 131.309L248 127L252.946 131.309C254.74 132.872 296.854 170.199 298.922 225.347C300.237 260.572 284.907 294.63 253.351 326.581L248 332ZM248 147.542C237.421 158.716 213.479 188.068 212.112 226.048C211.076 254.904 223.14 283.242 248 310.383C272.856 283.242 284.92 254.904 283.888 226.048C282.521 188.068 258.584 158.716 248 147.542Z" fill="#2E493F"/>
<path d="M405.887 274.113C405.887 274.113 276.894 265.217 276 405C414.728 404.117 405.887 274.113 405.887 274.113Z" fill="#2E493F"/>
<path d="M268 412L268.052 404.35C268.895 272.672 379.549 266 401.721 266C404.987 266 406.838 266.131 406.838 266.131L413.383 266.594L413.855 273.144C414.016 275.519 417.413 331.871 379.759 372.46C355.714 398.376 320.683 411.659 275.637 411.943L268 412ZM398.852 281.122C369.07 281.764 287.871 293.135 283.33 396.66C320.273 395.035 348.959 383.459 368.694 362.185C394.704 334.164 398.459 296.484 398.852 281.122Z" fill="#2E493F"/>
</g>
<defs>
<clipPath id="clip0_769_180">
<rect width="500" height="500" rx="250" fill="white"/>
</clipPath>
</defs>
</svg>
